<svg id="Capa_1" data-name="Capa 1" xmlns="http://www.w3.org/2000/svg" viewBox="0 0 483.8 468.2"><defs><style>.cls-1{fill:gray;}</style></defs><title>cursos</title><path class="cls-1" d="M123.2,134H15.7A15.66,15.66,0,0,0,0,149.7V460.3A15.66,15.66,0,0,0,15.7,476H123.2a15.66,15.66,0,0,0,15.7-15.7V149.7A15.6,15.6,0,0,0,123.2,134ZM107.5,444.6H31.4V165.4h76.1Z" transform="translate(0 -7.8)"/><path class="cls-1" d="M468.1,216.4H360.6a15.66,15.66,0,0,0-15.7,15.7V460.3A15.66,15.66,0,0,0,360.6,476H468.1a15.66,15.66,0,0,0,15.7-15.7V232.1A15.66,15.66,0,0,0,468.1,216.4Zm-91.8,31.4h24.4l-24.4,24.4Zm0,49.4,49.3-49.3h24.9l-74.2,74.2V297.2Zm76.1,147.4H427.9l24.5-24.5Zm0-49.4L403,444.6H378.1l74.2-74.2v24.8Zm0-49.7-76.1,76.1V396.7l76.1-76.1Zm0-49.8-76.1,76.1V346.9l76.1-76.1Z" transform="translate(0 -7.8)"/><path class="cls-1" d="M295.7,7.8H188.1a15.66,15.66,0,0,0-15.7,15.7V460.3A15.66,15.66,0,0,0,188.1,476H295.6a15.66,15.66,0,0,0,15.7-15.7V23.5A15.52,15.52,0,0,0,295.7,7.8Z" transform="translate(0 -7.8)"/></svg>