<svg id="Layer_1" data-name="Layer 1" xmlns="http://www.w3.org/2000/svg" viewBox="0 0 512 382.67"><defs><style>.cls-1{fill:gray;}</style></defs><title>facul</title><path class="cls-1" d="M506.1,188.46,260.77,65.79a10.67,10.67,0,0,0-9.54,0L5.9,188.46a10.65,10.65,0,0,0,0,19.07l81.21,40.61v81.52c0,50.34,74.19,89.77,168.89,89.77S424.89,380,424.89,329.66V248.14L453.24,234v77.79a33.16,33.16,0,0,0-3.57,61.35L427,432.89a10.67,10.67,0,0,0,10,14.45h53.83a10.67,10.67,0,0,0,10-14.45l-22.66-59.78a33.16,33.16,0,0,0-3.57-61.35V223.3l31.54-15.76a10.67,10.67,0,0,0,0-19.08Zm-143,187.6c-28.43,14.21-66.47,22-107.11,22s-78.68-7.83-107.11-22c-25.7-12.85-40.45-29.77-40.45-46.4V258.81L251.23,330.2a10.63,10.63,0,0,0,9.54,0l142.78-71.39v70.85h0C403.55,346.29,388.81,363.2,363.11,376.06ZM452.44,426l11.46-30.26L475.37,426Zm23.29-82.85a11.83,11.83,0,1,1-11.88-11.83h.1A11.84,11.84,0,0,1,475.73,343.16Zm-14-137.29L257,187.38A10.66,10.66,0,1,0,255,208.62L425.45,224,256,308.74,34.52,198,256,87.25,477.48,198Z" transform="translate(0 -64.66)"/><polygon class="cls-1" points="696 57.34 696 57.34 696 57.34 696 57.34 696 57.34"/></svg>