<svg id="Capa_1" data-name="Capa 1" xmlns="http://www.w3.org/2000/svg" viewBox="0 0 414.23 512"><defs><style>.cls-1{fill:gray;}</style></defs><title>localização</title><path class="cls-1" d="M426,89C386.86,32.45,324.92,0,256,0S125.15,32.45,86.06,89C47.17,145.31,38.18,216.56,62,279.52c6.37,17.19,16.49,33.89,30,49.54L242.38,505.7a17.89,17.89,0,0,0,27.26,0L420,329.11c13.58-15.74,23.69-32.43,30-49.48C473.83,216.56,464.85,145.3,426,89Zm-9.5,178.07c-4.87,13.16-12.82,26.17-23.61,38.68l-.09.1L256,466.49,119.17,305.77c-10.78-12.5-18.73-25.51-23.65-38.8-19.69-52.06-12.22-111,20-157.59S199,35.8,256,35.8,364.19,62.62,396.5,109.38,436.18,214.91,416.45,267.09Z" transform="translate(-48.89)"/><path class="cls-1" d="M256,106.22A100.25,100.25,0,1,0,356.26,206.47,100.37,100.37,0,0,0,256,106.22Zm0,164.7a64.45,64.45,0,1,1,64.44-64.45A64.52,64.52,0,0,1,256,270.92Z" transform="translate(-48.89)"/></svg>