<svg id="Capa_1" data-name="Capa 1" xmlns="http://www.w3.org/2000/svg" viewBox="0 0 512 512"><defs><style>.cls-1{fill:gray;}</style></defs><title>tempo</title><path class="cls-1" d="M256,0a8.52,8.52,0,0,0-8.53,8.53V122a8.53,8.53,0,1,0,17.06,0V17.22C392.35,21.73,494.93,127.11,494.93,256c0,131.75-107.18,238.93-238.93,238.93S17.07,387.75,17.07,256A237.4,237.4,0,0,1,86.75,87.35a8.53,8.53,0,1,0-12.08-12A254.31,254.31,0,0,0,0,256C0,397.16,114.84,512,256,512S512,397.16,512,256,397.16,0,256,0Z"/><path class="cls-1" d="M243.67,286.14a30.34,30.34,0,0,0,22.22,12.43c.79.07,1.59.1,2.37.1a30.41,30.41,0,0,0,17.86-55l-110.45-79.9a8.54,8.54,0,0,0-11.92,11.93Zm32.43-28.67a13.34,13.34,0,1,1-18.62,18.66l-48.75-67.39Z"/></svg>